<svg width="200" height="135" viewBox="0 0 200 135" fill="none" xmlns="http://www.w3.org/2000/svg">
<rect width="200" height="135" rx="10" fill="white"/>
<path d="M94.595 78V68.565H92.435V66.825H96.635V78H94.595ZM103.36 78.18C102.47 78.18 101.69 77.94 101.02 77.46C100.35 76.98 99.8248 76.305 99.4448 75.435C99.0748 74.565 98.8898 73.555 98.8898 72.405C98.8898 71.245 99.0748 70.235 99.4448 69.375C99.8148 68.515 100.335 67.845 101.005 67.365C101.675 66.885 102.455 66.645 103.345 66.645C104.255 66.645 105.04 66.885 105.7 67.365C106.37 67.845 106.895 68.52 107.275 69.39C107.655 70.25 107.845 71.255 107.845 72.405C107.845 73.555 107.655 74.565 107.275 75.435C106.905 76.295 106.385 76.97 105.715 77.46C105.045 77.94 104.26 78.18 103.36 78.18ZM103.375 76.32C103.885 76.32 104.32 76.165 104.68 75.855C105.04 75.535 105.315 75.085 105.505 74.505C105.705 73.915 105.805 73.215 105.805 72.405C105.805 71.595 105.705 70.9 105.505 70.32C105.315 69.73 105.035 69.28 104.665 68.97C104.305 68.66 103.865 68.505 103.345 68.505C102.845 68.505 102.415 68.66 102.055 68.97C101.695 69.28 101.415 69.73 101.215 70.32C101.025 70.9 100.93 71.595 100.93 72.405C100.93 73.205 101.025 73.9 101.215 74.49C101.415 75.07 101.695 75.52 102.055 75.84C102.425 76.16 102.865 76.32 103.375 76.32ZM113.98 78.18C113.09 78.18 112.31 77.94 111.64 77.46C110.97 76.98 110.445 76.305 110.065 75.435C109.695 74.565 109.51 73.555 109.51 72.405C109.51 71.245 109.695 70.235 110.065 69.375C110.435 68.515 110.955 67.845 111.625 67.365C112.295 66.885 113.075 66.645 113.965 66.645C114.875 66.645 115.66 66.885 116.32 67.365C116.99 67.845 117.515 68.52 117.895 69.39C118.275 70.25 118.465 71.255 118.465 72.405C118.465 73.555 118.275 74.565 117.895 75.435C117.525 76.295 117.005 76.97 116.335 77.46C115.665 77.94 114.88 78.18 113.98 78.18ZM113.995 76.32C114.505 76.32 114.94 76.165 115.3 75.855C115.66 75.535 115.935 75.085 116.125 74.505C116.325 73.915 116.425 73.215 116.425 72.405C116.425 71.595 116.325 70.9 116.125 70.32C115.935 69.73 115.655 69.28 115.285 68.97C114.925 68.66 114.485 68.505 113.965 68.505C113.465 68.505 113.035 68.66 112.675 68.97C112.315 69.28 112.035 69.73 111.835 70.32C111.645 70.9 111.55 71.595 111.55 72.405C111.55 73.205 111.645 73.9 111.835 74.49C112.035 75.07 112.315 75.52 112.675 75.84C113.045 76.16 113.485 76.32 113.995 76.32ZM128.286 78.18C127.486 78.18 126.746 78.035 126.066 77.745C125.396 77.455 124.806 77.05 124.296 76.53C123.796 76.01 123.406 75.4 123.126 74.7C122.846 74 122.706 73.235 122.706 72.405C122.706 71.575 122.841 70.81 123.111 70.11C123.391 69.4 123.781 68.79 124.281 68.28C124.791 67.76 125.386 67.36 126.066 67.08C126.746 66.79 127.486 66.645 128.286 66.645C129.086 66.645 129.801 66.78 130.431 67.05C131.071 67.32 131.611 67.68 132.051 68.13C132.491 68.57 132.806 69.055 132.996 69.585L131.166 70.44C130.956 69.88 130.601 69.42 130.101 69.06C129.601 68.69 128.996 68.505 128.286 68.505C127.586 68.505 126.966 68.67 126.426 69C125.896 69.33 125.481 69.785 125.181 70.365C124.891 70.945 124.746 71.625 124.746 72.405C124.746 73.185 124.891 73.87 125.181 74.46C125.481 75.04 125.896 75.495 126.426 75.825C126.966 76.155 127.586 76.32 128.286 76.32C128.996 76.32 129.601 76.14 130.101 75.78C130.601 75.41 130.956 74.945 131.166 74.385L132.996 75.24C132.806 75.77 132.491 76.26 132.051 76.71C131.611 77.15 131.071 77.505 130.431 77.775C129.801 78.045 129.086 78.18 128.286 78.18ZM137.637 78L133.737 66.825H135.957L139.017 76.08H138.582L141.642 66.825H143.862L139.977 78H137.637ZM147.304 78.18C146.434 78.18 145.674 77.975 145.024 77.565C144.384 77.145 143.944 76.58 143.704 75.87L145.174 75.165C145.384 75.625 145.674 75.985 146.044 76.245C146.424 76.505 146.844 76.635 147.304 76.635C147.664 76.635 147.949 76.555 148.159 76.395C148.369 76.235 148.474 76.025 148.474 75.765C148.474 75.605 148.429 75.475 148.339 75.375C148.259 75.265 148.144 75.175 147.994 75.105C147.854 75.025 147.699 74.96 147.529 74.91L146.194 74.535C145.504 74.335 144.979 74.03 144.619 73.62C144.269 73.21 144.094 72.725 144.094 72.165C144.094 71.665 144.219 71.23 144.469 70.86C144.729 70.48 145.084 70.185 145.534 69.975C145.994 69.765 146.519 69.66 147.109 69.66C147.879 69.66 148.559 69.845 149.149 70.215C149.739 70.585 150.159 71.105 150.409 71.775L148.909 72.48C148.769 72.11 148.534 71.815 148.204 71.595C147.874 71.375 147.504 71.265 147.094 71.265C146.764 71.265 146.504 71.34 146.314 71.49C146.124 71.64 146.029 71.835 146.029 72.075C146.029 72.225 146.069 72.355 146.149 72.465C146.229 72.575 146.339 72.665 146.479 72.735C146.629 72.805 146.799 72.87 146.989 72.93L148.294 73.32C148.964 73.52 149.479 73.82 149.839 74.22C150.209 74.62 150.394 75.11 150.394 75.69C150.394 76.18 150.264 76.615 150.004 76.995C149.744 77.365 149.384 77.655 148.924 77.865C148.464 78.075 147.924 78.18 147.304 78.18ZM93.08 98V86.825H97.235C97.995 86.825 98.665 86.965 99.245 87.245C99.835 87.515 100.295 87.915 100.625 88.445C100.955 88.965 101.12 89.6 101.12 90.35C101.12 91.12 100.935 91.775 100.565 92.315C100.205 92.855 99.715 93.255 99.095 93.515L101.66 98H99.35L96.605 93.095L97.925 93.875H95.12V98H93.08ZM95.12 92.075H97.265C97.635 92.075 97.955 92.005 98.225 91.865C98.495 91.715 98.705 91.51 98.855 91.25C99.005 90.99 99.08 90.69 99.08 90.35C99.08 90 99.005 89.7 98.855 89.45C98.705 89.19 98.495 88.99 98.225 88.85C97.955 88.7 97.635 88.625 97.265 88.625H95.12V92.075ZM106.248 98.18C105.408 98.18 104.673 97.99 104.043 97.61C103.413 97.23 102.923 96.715 102.573 96.065C102.223 95.415 102.048 94.695 102.048 93.905C102.048 93.085 102.223 92.36 102.573 91.73C102.933 91.09 103.418 90.585 104.028 90.215C104.648 89.845 105.338 89.66 106.098 89.66C106.738 89.66 107.298 89.765 107.778 89.975C108.268 90.185 108.683 90.475 109.023 90.845C109.363 91.215 109.623 91.64 109.803 92.12C109.983 92.59 110.073 93.1 110.073 93.65C110.073 93.79 110.063 93.935 110.043 94.085C110.033 94.235 110.008 94.365 109.968 94.475H103.668V92.975H108.858L107.928 93.68C108.018 93.22 107.993 92.81 107.853 92.45C107.723 92.09 107.503 91.805 107.193 91.595C106.893 91.385 106.528 91.28 106.098 91.28C105.688 91.28 105.323 91.385 105.003 91.595C104.683 91.795 104.438 92.095 104.268 92.495C104.108 92.885 104.048 93.36 104.088 93.92C104.048 94.42 104.113 94.865 104.283 95.255C104.463 95.635 104.723 95.93 105.063 96.14C105.413 96.35 105.813 96.455 106.263 96.455C106.713 96.455 107.093 96.36 107.403 96.17C107.723 95.98 107.973 95.725 108.153 95.405L109.743 96.185C109.583 96.575 109.333 96.92 108.993 97.22C108.653 97.52 108.248 97.755 107.778 97.925C107.318 98.095 106.808 98.18 106.248 98.18ZM112.507 98V91.595H111.067V89.84H112.507V89.57C112.507 88.95 112.632 88.425 112.882 87.995C113.142 87.555 113.502 87.22 113.962 86.99C114.422 86.76 114.967 86.645 115.597 86.645C115.717 86.645 115.847 86.655 115.987 86.675C116.137 86.685 116.262 86.7 116.362 86.72V88.415C116.262 88.395 116.167 88.385 116.077 88.385C115.997 88.375 115.922 88.37 115.852 88.37C115.412 88.37 115.072 88.47 114.832 88.67C114.592 88.86 114.472 89.16 114.472 89.57V89.84H116.287V91.595H114.472V98H112.507ZM121.412 98.18C120.612 98.18 119.882 97.995 119.222 97.625C118.572 97.255 118.052 96.75 117.662 96.11C117.282 95.47 117.092 94.74 117.092 93.92C117.092 93.1 117.282 92.37 117.662 91.73C118.052 91.09 118.572 90.585 119.222 90.215C119.872 89.845 120.602 89.66 121.412 89.66C122.212 89.66 122.937 89.845 123.587 90.215C124.237 90.585 124.752 91.09 125.132 91.73C125.522 92.36 125.717 93.09 125.717 93.92C125.717 94.74 125.522 95.47 125.132 96.11C124.742 96.75 124.222 97.255 123.572 97.625C122.922 97.995 122.202 98.18 121.412 98.18ZM121.412 96.38C121.852 96.38 122.237 96.275 122.567 96.065C122.907 95.855 123.172 95.565 123.362 95.195C123.562 94.815 123.662 94.39 123.662 93.92C123.662 93.44 123.562 93.02 123.362 92.66C123.172 92.29 122.907 92 122.567 91.79C122.237 91.57 121.852 91.46 121.412 91.46C120.962 91.46 120.567 91.57 120.227 91.79C119.887 92 119.617 92.29 119.417 92.66C119.227 93.02 119.132 93.44 119.132 93.92C119.132 94.39 119.227 94.815 119.417 95.195C119.617 95.565 119.887 95.855 120.227 96.065C120.567 96.275 120.962 96.38 121.412 96.38ZM127.207 98V89.84H129.052V91.655L128.902 91.385C129.092 90.775 129.387 90.35 129.787 90.11C130.197 89.87 130.687 89.75 131.257 89.75H131.737V91.49H131.032C130.472 91.49 130.022 91.665 129.682 92.015C129.342 92.355 129.172 92.835 129.172 93.455V98H127.207ZM132.817 98V89.84H134.662V91.73L134.452 91.415C134.602 90.825 134.902 90.385 135.352 90.095C135.802 89.805 136.332 89.66 136.942 89.66C137.612 89.66 138.202 89.835 138.712 90.185C139.222 90.535 139.552 90.995 139.702 91.565L139.147 91.61C139.397 90.96 139.772 90.475 140.272 90.155C140.772 89.825 141.347 89.66 141.997 89.66C142.577 89.66 143.092 89.79 143.542 90.05C144.002 90.31 144.362 90.675 144.622 91.145C144.882 91.605 145.012 92.14 145.012 92.75V98H143.047V93.215C143.047 92.855 142.982 92.545 142.852 92.285C142.722 92.025 142.542 91.825 142.312 91.685C142.082 91.535 141.802 91.46 141.472 91.46C141.162 91.46 140.887 91.535 140.647 91.685C140.407 91.825 140.222 92.025 140.092 92.285C139.962 92.545 139.897 92.855 139.897 93.215V98H137.932V93.215C137.932 92.855 137.867 92.545 137.737 92.285C137.607 92.025 137.422 91.825 137.182 91.685C136.952 91.535 136.677 91.46 136.357 91.46C136.047 91.46 135.772 91.535 135.532 91.685C135.292 91.825 135.107 92.025 134.977 92.285C134.847 92.545 134.782 92.855 134.782 93.215V98H132.817ZM149.15 98.18C148.58 98.18 148.085 98.085 147.665 97.895C147.245 97.705 146.92 97.435 146.69 97.085C146.46 96.725 146.345 96.31 146.345 95.84C146.345 95.39 146.445 94.99 146.645 94.64C146.845 94.28 147.155 93.98 147.575 93.74C147.995 93.5 148.525 93.33 149.165 93.23L151.835 92.795V94.295L149.54 94.685C149.15 94.755 148.86 94.88 148.67 95.06C148.48 95.24 148.385 95.475 148.385 95.765C148.385 96.045 148.49 96.27 148.7 96.44C148.92 96.6 149.19 96.68 149.51 96.68C149.92 96.68 150.28 96.595 150.59 96.425C150.91 96.245 151.155 96 151.325 95.69C151.505 95.38 151.595 95.04 151.595 94.67V92.57C151.595 92.22 151.455 91.93 151.175 91.7C150.905 91.46 150.545 91.34 150.095 91.34C149.675 91.34 149.3 91.455 148.97 91.685C148.65 91.905 148.415 92.2 148.265 92.57L146.66 91.79C146.82 91.36 147.07 90.99 147.41 90.68C147.76 90.36 148.17 90.11 148.64 89.93C149.11 89.75 149.62 89.66 150.17 89.66C150.84 89.66 151.43 89.785 151.94 90.035C152.45 90.275 152.845 90.615 153.125 91.055C153.415 91.485 153.56 91.99 153.56 92.57V98H151.7V96.605L152.12 96.575C151.91 96.925 151.66 97.22 151.37 97.46C151.08 97.69 150.75 97.87 150.38 98C150.01 98.12 149.6 98.18 149.15 98.18ZM158.949 98.09C158.029 98.09 157.314 97.84 156.804 97.34C156.304 96.83 156.054 96.115 156.054 95.195V91.595H154.644V89.84H154.794C155.194 89.84 155.504 89.735 155.724 89.525C155.944 89.315 156.054 89.01 156.054 88.61V87.98H158.019V89.84H159.894V91.595H158.019V95.09C158.019 95.36 158.064 95.59 158.154 95.78C158.254 95.97 158.404 96.115 158.604 96.215C158.814 96.315 159.079 96.365 159.399 96.365C159.469 96.365 159.549 96.36 159.639 96.35C159.739 96.34 159.834 96.33 159.924 96.32V98C159.784 98.02 159.624 98.04 159.444 98.06C159.264 98.08 159.099 98.09 158.949 98.09ZM165.146 98.09C164.226 98.09 163.511 97.84 163.001 97.34C162.501 96.83 162.251 96.115 162.251 95.195V91.595H160.841V89.84H160.991C161.391 89.84 161.701 89.735 161.921 89.525C162.141 89.315 162.251 89.01 162.251 88.61V87.98H164.216V89.84H166.091V91.595H164.216V95.09C164.216 95.36 164.261 95.59 164.351 95.78C164.451 95.97 164.601 96.115 164.801 96.215C165.011 96.315 165.276 96.365 165.596 96.365C165.666 96.365 165.746 96.36 165.836 96.35C165.936 96.34 166.031 96.33 166.121 96.32V98C165.981 98.02 165.821 98.04 165.641 98.06C165.461 98.08 165.296 98.09 165.146 98.09ZM171.419 98.18C170.579 98.18 169.844 97.99 169.214 97.61C168.584 97.23 168.094 96.715 167.744 96.065C167.394 95.415 167.219 94.695 167.219 93.905C167.219 93.085 167.394 92.36 167.744 91.73C168.104 91.09 168.589 90.585 169.199 90.215C169.819 89.845 170.509 89.66 171.269 89.66C171.909 89.66 172.469 89.765 172.949 89.975C173.439 90.185 173.854 90.475 174.194 90.845C174.534 91.215 174.794 91.64 174.974 92.12C175.154 92.59 175.244 93.1 175.244 93.65C175.244 93.79 175.234 93.935 175.214 94.085C175.204 94.235 175.179 94.365 175.139 94.475H168.839V92.975H174.029L173.099 93.68C173.189 93.22 173.164 92.81 173.024 92.45C172.894 92.09 172.674 91.805 172.364 91.595C172.064 91.385 171.699 91.28 171.269 91.28C170.859 91.28 170.494 91.385 170.174 91.595C169.854 91.795 169.609 92.095 169.439 92.495C169.279 92.885 169.219 93.36 169.259 93.92C169.219 94.42 169.284 94.865 169.454 95.255C169.634 95.635 169.894 95.93 170.234 96.14C170.584 96.35 170.984 96.455 171.434 96.455C171.884 96.455 172.264 96.36 172.574 96.17C172.894 95.98 173.144 95.725 173.324 95.405L174.914 96.185C174.754 96.575 174.504 96.92 174.164 97.22C173.824 97.52 173.419 97.755 172.949 97.925C172.489 98.095 171.979 98.18 171.419 98.18ZM180.528 98.18C179.738 98.18 179.033 97.995 178.413 97.625C177.793 97.245 177.303 96.73 176.943 96.08C176.583 95.43 176.403 94.71 176.403 93.92C176.403 93.12 176.583 92.4 176.943 91.76C177.303 91.12 177.793 90.61 178.413 90.23C179.043 89.85 179.743 89.66 180.513 89.66C181.133 89.66 181.683 89.785 182.163 90.035C182.653 90.275 183.038 90.615 183.318 91.055L183.018 91.46V86.645H184.983V98H183.123V96.425L183.333 96.815C183.053 97.255 182.663 97.595 182.163 97.835C181.663 98.065 181.118 98.18 180.528 98.18ZM180.738 96.38C181.188 96.38 181.583 96.275 181.923 96.065C182.263 95.855 182.528 95.565 182.718 95.195C182.918 94.825 183.018 94.4 183.018 93.92C183.018 93.45 182.918 93.03 182.718 92.66C182.528 92.28 182.263 91.985 181.923 91.775C181.583 91.565 181.188 91.46 180.738 91.46C180.298 91.46 179.903 91.57 179.553 91.79C179.203 92 178.928 92.29 178.728 92.66C178.538 93.02 178.443 93.44 178.443 93.92C178.443 94.4 178.538 94.825 178.728 95.195C178.928 95.565 179.203 95.855 179.553 96.065C179.903 96.275 180.298 96.38 180.738 96.38Z" fill="#00C51F"/>
<path d="M107.905 46.391L112.343 50.9521L119.493 40.0487" stroke="#00C51F" stroke-width="2" stroke-linecap="round" stroke-linejoin="round"/>
<circle cx="113.5" cy="45.5" r="12.5" stroke="#00C51F" stroke-width="2"/>
<rect x="9" y="15" width="55" height="6" rx="3" fill="#E6E6E6"/>
<rect x="9" y="26" width="73" height="6" rx="3" fill="#E6E6E6"/>
<rect x="9" y="37" width="66" height="6" rx="3" fill="#E6E6E6"/>
<rect x="9" y="48" width="71" height="6" rx="3" fill="#E6E6E6"/>
<rect x="9" y="59" width="66" height="6" rx="3" fill="#E6E6E6"/>
<rect x="9" y="70" width="61" height="6" rx="3" fill="#E6E6E6"/>
<rect x="9" y="81" width="75" height="6" rx="3" fill="#E6E6E6"/>
<rect x="9" y="92" width="66" height="6" rx="3" fill="#E6E6E6"/>
<rect x="9" y="103" width="58" height="6" rx="3" fill="#E6E6E6"/>
<rect x="9" y="114" width="77" height="6" rx="3" fill="#E6E6E6"/>
</svg>
