<svg width="61" height="61" viewBox="0 0 61 61" fill="none" xmlns="http://www.w3.org/2000/svg">
<g clip-path="url(#clip0_201_23)">
<path d="M18.0147 31.6608C18.0147 32.1971 18.2345 32.4184 18.7633 32.4273C19.399 32.4377 20.0348 32.4377 20.6705 32.4303C21.2052 32.4243 21.4414 32.203 21.4429 31.6801C21.4488 27.7484 21.4489 23.8166 21.4459 19.8848C21.4459 19.3693 21.2038 19.1421 20.6735 19.1361C20.0823 19.1287 19.4911 19.1302 18.8999 19.1361C18.2048 19.1421 18.0147 19.3381 18.0147 20.0437C18.0147 21.9658 18.0147 23.8864 18.0147 25.8084C18.0147 27.7587 18.0117 29.7105 18.0161 31.6608H18.0147Z" fill="#062276"/>
<path d="M37.2696 43.8142C37.1047 43.777 37.023 43.7533 36.9384 43.7399C35.9298 43.5914 34.9257 43.4146 33.9127 43.3047C33.0303 43.2096 32.4481 42.7997 32.0856 41.9827C31.6712 41.0529 31.1885 40.1527 30.7325 39.2407C30.6849 39.1456 30.6136 39.061 30.52 38.9243C29.9497 40.0695 29.4075 41.1524 28.8728 42.2367C28.598 42.7922 28.1776 43.1413 27.5523 43.2304C26.9967 43.3092 26.4427 43.3938 25.8872 43.4785C25.2247 43.578 24.5622 43.679 23.8151 43.7934C23.9636 43.9627 24.0423 44.0637 24.1329 44.1514C24.8518 44.8539 25.5544 45.5758 26.3001 46.2472C26.9269 46.8117 27.1215 47.4652 26.9581 48.2792C26.771 49.2061 26.6284 50.1404 26.4694 51.0717C26.4367 51.2633 26.4189 51.4564 26.3818 51.7342C27.2567 51.2812 28.084 50.9381 28.8148 50.4523C29.9898 49.6695 31.0756 49.6369 32.2609 50.4375C32.9991 50.9351 33.8414 51.2782 34.6925 51.7194C34.6836 51.5589 34.685 51.4758 34.6717 51.3941C34.489 50.3023 34.3048 49.2091 34.1161 48.1173C33.9929 47.4058 34.183 46.8206 34.7252 46.3215C35.4753 45.6308 36.1957 44.9074 36.925 44.1959C37.0334 44.0905 37.127 43.9701 37.2696 43.8127V43.8142Z" fill="#062276"/>
<path d="M30.5007 0C13.6551 0 0 13.6551 0 30.5007C0 47.3464 13.6551 61.0015 30.5007 61.0015C47.3464 61.0015 61.0015 47.3464 61.0015 30.5007C61.0015 13.6551 47.3449 0 30.5007 0ZM16.3525 19.7689C16.357 18.4632 17.3165 17.52 18.6296 17.4829C19.2951 17.4651 19.9605 17.4859 20.626 17.474C21.7385 17.4532 22.5198 17.9419 22.9714 18.9594C22.9951 19.0128 23.0248 19.0633 23.0545 19.1138C23.062 19.1257 23.0768 19.1331 23.1303 19.1777C23.8552 18.9861 24.4241 18.6534 24.8726 17.9968C25.8634 16.5471 26.8601 15.087 28.0157 13.7709C29.3273 12.2766 30.0536 10.5863 30.3953 8.66569C30.4993 8.08045 30.6864 7.47888 30.9775 6.96493C31.6638 5.75584 32.9843 5.4246 34.1904 6.11827C35.6505 6.95751 36.2655 8.33445 36.4675 9.92826C36.6235 11.1626 36.3917 12.3435 35.8139 13.4501C35.5065 14.0398 35.2435 14.6592 34.8781 15.2103C34.3271 16.0406 34.9554 16.7357 35.7263 16.8026C37.2711 16.9363 38.8129 17.1219 40.3488 17.3373C41.1791 17.4547 41.999 17.6611 42.8175 17.8572C45.2015 18.4276 45.8373 20.6319 45.3605 22.3505C45.2297 22.8199 45.206 23.2268 45.356 23.7081C45.7303 24.9098 45.3902 26.0387 44.8525 27.1289C44.7559 27.325 44.7099 27.5745 44.7262 27.7929C44.8213 29.0956 44.3935 30.1992 43.5305 31.1602C43.3998 31.3058 43.2765 31.4945 43.2393 31.6801C42.7789 33.9617 41.3574 35.1975 39.0283 35.3163C36.9963 35.4203 35.0267 35.0163 33.0675 34.5603C30.4636 33.9528 27.8672 33.3096 25.2618 32.7065C24.6602 32.5669 24.0334 32.5372 23.4199 32.4421C23.163 32.402 23.0263 32.4733 22.9075 32.7229C22.4812 33.6215 21.7578 34.0805 20.7552 34.0805C20.0452 34.0805 19.3352 34.0864 18.6266 34.0775C17.3611 34.0627 16.357 33.0942 16.354 31.8331C16.3406 27.8107 16.3406 23.7898 16.354 19.7674L16.3525 19.7689ZM22.9179 51.2931C22.7218 51.657 22.2688 51.859 21.8974 51.6421C21.4979 51.4104 21.2112 51.5515 20.8785 51.7312C19.9679 52.2214 19.0485 52.6953 18.132 53.178C17.4992 53.5107 16.8769 53.5033 16.2916 53.0829C15.7197 52.6715 15.5222 52.0922 15.6366 51.4045C15.8208 50.2964 15.999 49.1853 16.2055 48.0817C16.2619 47.7801 16.1847 47.587 15.9708 47.3835C15.1776 46.6305 14.4052 45.8551 13.615 45.0975C13.0877 44.5925 12.8649 44.0013 13.0966 43.2928C13.3268 42.5887 13.8467 42.2233 14.5701 42.1223C15.6544 41.9708 16.7357 41.8015 17.8201 41.6648C18.1379 41.6247 18.3117 41.4881 18.4469 41.2044C18.9252 40.2032 19.4302 39.2169 19.9189 38.2217C20.2368 37.5726 20.7567 37.228 21.4711 37.2354C22.1678 37.2429 22.6758 37.5845 22.9832 38.2188C23.209 38.6837 23.4467 39.1442 23.6695 39.6106C23.9042 40.1007 23.7646 40.5835 23.3427 40.7929C22.903 41.0098 22.453 40.8479 22.196 40.3651C21.9554 39.9106 21.7296 39.4487 21.4429 38.8827C20.8681 40.0354 20.3333 41.0707 19.8357 42.1238C19.5238 42.7833 19.047 43.1651 18.3206 43.2646C17.1502 43.4235 15.9841 43.6033 14.7171 43.7889C14.8508 43.9464 14.9295 44.0548 15.0246 44.1484C15.7866 44.8926 16.5456 45.6397 17.3165 46.3735C17.8186 46.8518 18.0147 47.4073 17.8854 48.095C17.6894 49.1407 17.5156 50.1909 17.3358 51.2381C17.3136 51.3658 17.3076 51.498 17.2853 51.7223C17.6968 51.5159 18.0444 51.345 18.389 51.1683C19.1109 50.794 19.8357 50.4256 20.5502 50.0379C21.3063 49.6279 22.0059 49.7661 22.6743 50.2266C23.0263 50.4687 23.1169 50.9232 22.9164 51.2945L22.9179 51.2931ZM35.7412 53.0607C35.1515 53.5048 34.5172 53.5196 33.8666 53.1765C32.8729 52.6537 31.8747 52.1397 30.8855 51.608C30.6537 51.4832 30.474 51.4698 30.2319 51.6005C29.2322 52.1442 28.2237 52.67 27.2106 53.1869C26.0223 53.7944 24.7122 53.0324 24.7018 51.5842C24.8474 50.7152 24.9692 49.6829 25.2069 48.6788C25.3747 47.9688 25.2722 47.4667 24.687 46.9855C23.9814 46.4047 23.368 45.7155 22.7025 45.0842C22.1811 44.5895 21.9925 43.9984 22.193 43.3136C22.3965 42.6214 22.8941 42.2382 23.6026 42.1327C24.7286 41.9664 25.8575 41.8208 26.9789 41.6307C27.172 41.598 27.4082 41.4287 27.4988 41.2564C28.0083 40.2894 28.491 39.3075 28.9604 38.3198C29.2827 37.641 29.7818 37.234 30.5408 37.231C31.2984 37.228 31.8079 37.6246 32.1332 38.3034C32.6055 39.2897 33.1076 40.2626 33.577 41.2504C33.7002 41.5104 33.8636 41.6173 34.1444 41.6544C35.2138 41.7926 36.2803 41.9634 37.3483 42.1075C38.0999 42.21 38.6703 42.5486 38.902 43.3002C39.1248 44.0236 38.8916 44.6222 38.3465 45.1376C37.5607 45.8774 36.8047 46.6483 36.0204 47.3895C35.8006 47.5974 35.7441 47.7994 35.7991 48.0935C35.9996 49.169 36.1719 50.2488 36.3606 51.3257C36.4824 52.0239 36.3204 52.6269 35.7426 53.0621L35.7412 53.0607ZM47.4251 45.1555C46.6394 45.8952 45.8803 46.6646 45.099 47.4088C44.9089 47.59 44.8391 47.7608 44.8881 48.0297C45.0961 49.1645 45.2966 50.3008 45.4629 51.4416C45.6055 52.419 45.0589 53.233 44.1261 53.3622C43.7444 53.4142 43.2943 53.3161 42.9393 53.1483C41.9381 52.6759 40.9756 52.1204 39.9819 51.6287C39.8051 51.5411 39.5318 51.5456 39.3417 51.6139C38.8322 51.7981 38.3643 51.6822 38.1593 51.2604C37.9484 50.8252 38.1267 50.3944 38.599 50.1122C39.2853 49.7007 39.9522 49.6992 40.6548 50.0884C41.5341 50.5756 42.4343 51.0227 43.327 51.4862C43.4666 51.5589 43.6092 51.6228 43.832 51.7312C43.6805 50.8281 43.5438 50.0156 43.4072 49.2046C43.376 49.0145 43.3641 48.8184 43.3077 48.6372C42.9616 47.5395 43.3091 46.7166 44.1707 45.9709C44.9252 45.3189 45.558 44.5257 46.2606 43.7756C45.6605 43.6849 45.001 43.5839 44.3415 43.4844C43.8008 43.4027 43.2616 43.3136 42.7195 43.2468C42.0406 43.1621 41.5906 42.7937 41.2965 42.1877C40.833 41.2296 40.3532 40.279 39.8794 39.3269C39.8215 39.2095 39.7517 39.0981 39.6477 38.9124C39.4457 39.3016 39.2719 39.6328 39.1011 39.9656C39.0134 40.1364 38.9407 40.3161 38.8396 40.478C38.602 40.8612 38.1504 40.986 37.7553 40.7929C37.3914 40.6147 37.1879 40.1735 37.3632 39.7769C37.6439 39.1427 37.9217 38.495 38.3019 37.9202C38.9733 36.9027 40.5285 37.0112 41.1108 38.1014C41.653 39.1189 42.1506 40.1601 42.6496 41.1999C42.7848 41.4792 42.9497 41.6247 43.2735 41.6633C44.3296 41.7926 45.3798 41.9693 46.4359 42.106C47.1904 42.204 47.7564 42.5412 48 43.2869C48.2436 44.034 47.9792 44.6341 47.4251 45.157V45.1555Z" fill="#062276"/>
<path d="M23.4615 30.7949C23.9324 30.8365 24.4092 30.8632 24.8682 30.9657C27.1453 31.4752 29.4134 32.0292 31.6935 32.5239C33.5265 32.9205 35.3639 33.32 37.2176 33.5889C38.0881 33.7152 39.0194 33.6201 39.8958 33.4656C40.8167 33.3037 41.3841 32.561 41.4717 31.6609C40.9326 31.5554 40.3844 31.4603 39.8423 31.34C39.3209 31.2242 39.0625 30.8202 39.1694 30.3255C39.263 29.8888 39.6566 29.6393 40.1498 29.7195C40.5582 29.7848 40.9637 29.868 41.3707 29.9393C42.363 30.1146 42.5783 29.9898 42.92 29.0228C42.9839 28.8431 43.018 28.6515 43.0566 28.4643C43.122 28.1509 43.0373 27.9757 42.6764 27.9237C41.9604 27.8182 41.2504 27.6697 40.5404 27.5271C39.9804 27.4157 39.6997 27.022 39.8007 26.517C39.8928 26.0551 40.3176 25.8025 40.8568 25.9006C41.5831 26.0328 42.3065 26.1828 43.0373 26.2957C43.171 26.3165 43.4042 26.2407 43.4577 26.1397C43.7488 25.5842 43.9167 24.9945 43.8172 24.3484C43.7681 24.026 43.6315 23.8626 43.2898 23.8166C42.4402 23.7022 41.5935 23.5596 40.7498 23.4141C40.2938 23.3353 39.9968 23.0115 40.0057 22.6075C40.0131 22.2168 40.2003 21.9138 40.585 21.8069C40.7751 21.7534 40.9964 21.7787 41.1969 21.8069C41.9278 21.9138 42.6541 22.049 43.3864 22.1455C43.4993 22.1604 43.7043 22.0638 43.7429 21.9688C44.141 20.9929 43.6137 19.8581 42.6081 19.5328C42.1446 19.3827 41.6708 19.2416 41.191 19.1748C39.3179 18.9163 37.4449 18.6415 35.5629 18.4633C33.4967 18.2687 32.3991 16.3303 33.3824 14.5018C33.7106 13.8898 34.0345 13.2749 34.3508 12.657C34.8425 11.7004 34.9732 10.6888 34.7385 9.64164C34.5677 8.8737 34.229 8.18745 33.5933 7.69282C33.0244 7.25166 32.5758 7.35861 32.2862 8.01366C32.1629 8.29291 32.0842 8.60187 32.0351 8.90489C31.6935 11.0022 30.9523 12.9006 29.5471 14.5464C28.4658 15.8134 27.4126 17.125 26.5229 18.5272C25.7639 19.7214 24.8132 20.4968 23.4601 20.8028C23.1853 20.8652 23.111 21.0077 23.111 21.2677C23.1154 24.3142 23.1154 27.3592 23.1095 30.4057C23.1095 30.6672 23.2061 30.7726 23.4645 30.7949H23.4615Z" fill="#062276"/>
</g>
<defs>
<clipPath id="clip0_201_23">
<rect width="61" height="61" fill="white"/>
</clipPath>
</defs>
</svg>
