<svg width="576" height="355" viewBox="0 0 576 355" fill="none" xmlns="http://www.w3.org/2000/svg">
<path d="M62.5 53C62.5 152 154.5 195.5 291 190.5C427.5 185.5 507.5 247 507.5 303" stroke="#38B5FF" stroke-width="3" stroke-dasharray="6 6"/>
<rect x="446" y="303" width="130" height="52" rx="26" fill="#E5FFE6"/>
<path d="M468.827 337V322.1H473.687C475.26 322.1 476.627 322.42 477.787 323.06C478.96 323.687 479.867 324.56 480.507 325.68C481.147 326.787 481.467 328.073 481.467 329.54C481.467 330.993 481.147 332.287 480.507 333.42C479.867 334.54 478.96 335.42 477.787 336.06C476.627 336.687 475.26 337 473.687 337H468.827ZM471.547 334.6H473.747C474.76 334.6 475.633 334.393 476.367 333.98C477.113 333.553 477.693 332.967 478.107 332.22C478.52 331.46 478.727 330.567 478.727 329.54C478.727 328.5 478.52 327.607 478.107 326.86C477.693 326.113 477.113 325.533 476.367 325.12C475.633 324.707 474.76 324.5 473.747 324.5H471.547V334.6ZM486.672 337.24C485.912 337.24 485.252 337.113 484.692 336.86C484.132 336.607 483.699 336.247 483.392 335.78C483.086 335.3 482.932 334.747 482.932 334.12C482.932 333.52 483.066 332.987 483.332 332.52C483.599 332.04 484.012 331.64 484.572 331.32C485.132 331 485.839 330.773 486.692 330.64L490.252 330.06V332.06L487.192 332.58C486.672 332.673 486.286 332.84 486.032 333.08C485.779 333.32 485.652 333.633 485.652 334.02C485.652 334.393 485.792 334.693 486.072 334.92C486.366 335.133 486.726 335.24 487.152 335.24C487.699 335.24 488.179 335.127 488.592 334.9C489.019 334.66 489.346 334.333 489.572 333.92C489.812 333.507 489.932 333.053 489.932 332.56V329.76C489.932 329.293 489.746 328.907 489.372 328.6C489.012 328.28 488.532 328.12 487.932 328.12C487.372 328.12 486.872 328.273 486.432 328.58C486.006 328.873 485.692 329.267 485.492 329.76L483.352 328.72C483.566 328.147 483.899 327.653 484.352 327.24C484.819 326.813 485.366 326.48 485.992 326.24C486.619 326 487.299 325.88 488.032 325.88C488.926 325.88 489.712 326.047 490.392 326.38C491.072 326.7 491.599 327.153 491.972 327.74C492.359 328.313 492.552 328.987 492.552 329.76V337H490.072V335.14L490.632 335.1C490.352 335.567 490.019 335.96 489.632 336.28C489.246 336.587 488.806 336.827 488.312 337C487.819 337.16 487.272 337.24 486.672 337.24ZM499.739 337.12C498.512 337.12 497.559 336.787 496.879 336.12C496.212 335.44 495.879 334.487 495.879 333.26V328.46H493.999V326.12H494.199C494.732 326.12 495.145 325.98 495.439 325.7C495.732 325.42 495.879 325.013 495.879 324.48V323.64H498.499V326.12H500.999V328.46H498.499V333.12C498.499 333.48 498.559 333.787 498.679 334.04C498.812 334.293 499.012 334.487 499.279 334.62C499.559 334.753 499.912 334.82 500.339 334.82C500.432 334.82 500.539 334.813 500.659 334.8C500.792 334.787 500.919 334.773 501.039 334.76V337C500.852 337.027 500.639 337.053 500.399 337.08C500.159 337.107 499.939 337.12 499.739 337.12ZM506.301 337.24C505.541 337.24 504.881 337.113 504.321 336.86C503.761 336.607 503.328 336.247 503.021 335.78C502.715 335.3 502.561 334.747 502.561 334.12C502.561 333.52 502.695 332.987 502.961 332.52C503.228 332.04 503.641 331.64 504.201 331.32C504.761 331 505.468 330.773 506.321 330.64L509.881 330.06V332.06L506.821 332.58C506.301 332.673 505.915 332.84 505.661 333.08C505.408 333.32 505.281 333.633 505.281 334.02C505.281 334.393 505.421 334.693 505.701 334.92C505.995 335.133 506.355 335.24 506.781 335.24C507.328 335.24 507.808 335.127 508.221 334.9C508.648 334.66 508.975 334.333 509.201 333.92C509.441 333.507 509.561 333.053 509.561 332.56V329.76C509.561 329.293 509.375 328.907 509.001 328.6C508.641 328.28 508.161 328.12 507.561 328.12C507.001 328.12 506.501 328.273 506.061 328.58C505.635 328.873 505.321 329.267 505.121 329.76L502.981 328.72C503.195 328.147 503.528 327.653 503.981 327.24C504.448 326.813 504.995 326.48 505.621 326.24C506.248 326 506.928 325.88 507.661 325.88C508.555 325.88 509.341 326.047 510.021 326.38C510.701 326.7 511.228 327.153 511.601 327.74C511.988 328.313 512.181 328.987 512.181 329.76V337H509.701V335.14L510.261 335.1C509.981 335.567 509.648 335.96 509.261 336.28C508.875 336.587 508.435 336.827 507.941 337C507.448 337.16 506.901 337.24 506.301 337.24ZM525.718 337.24C524.624 337.24 523.604 337.047 522.658 336.66C521.711 336.273 520.884 335.733 520.178 335.04C519.471 334.347 518.918 333.533 518.518 332.6C518.131 331.653 517.938 330.633 517.938 329.54C517.938 328.433 518.131 327.413 518.518 326.48C518.904 325.547 519.451 324.733 520.158 324.04C520.864 323.347 521.691 322.813 522.638 322.44C523.584 322.053 524.611 321.86 525.718 321.86C526.824 321.86 527.851 322.053 528.798 322.44C529.744 322.827 530.571 323.367 531.278 324.06C531.984 324.74 532.531 325.547 532.918 326.48C533.318 327.413 533.518 328.433 533.518 329.54C533.518 330.633 533.318 331.653 532.918 332.6C532.518 333.533 531.964 334.347 531.258 335.04C530.551 335.733 529.724 336.273 528.778 336.66C527.844 337.047 526.824 337.24 525.718 337.24ZM525.718 334.76C526.451 334.76 527.124 334.633 527.738 334.38C528.351 334.113 528.884 333.747 529.338 333.28C529.804 332.813 530.158 332.26 530.398 331.62C530.651 330.98 530.778 330.287 530.778 329.54C530.778 328.793 530.651 328.107 530.398 327.48C530.158 326.84 529.804 326.287 529.338 325.82C528.884 325.34 528.351 324.973 527.738 324.72C527.124 324.467 526.451 324.34 525.718 324.34C524.998 324.34 524.331 324.467 523.718 324.72C523.104 324.973 522.564 325.34 522.098 325.82C521.644 326.287 521.291 326.84 521.038 327.48C520.784 328.107 520.658 328.793 520.658 329.54C520.658 330.287 520.784 330.98 521.038 331.62C521.291 332.26 521.644 332.813 522.098 333.28C522.564 333.747 523.104 334.113 523.718 334.38C524.331 334.633 524.998 334.76 525.718 334.76ZM539.596 337.24C538.756 337.24 538.023 337.053 537.396 336.68C536.783 336.307 536.309 335.787 535.976 335.12C535.656 334.453 535.496 333.673 535.496 332.78V326.12H538.116V332.56C538.116 333.013 538.203 333.413 538.376 333.76C538.563 334.093 538.823 334.36 539.156 334.56C539.503 334.747 539.889 334.84 540.316 334.84C540.743 334.84 541.123 334.747 541.456 334.56C541.789 334.36 542.049 334.087 542.236 333.74C542.423 333.393 542.516 332.98 542.516 332.5V326.12H545.136V337H542.656V334.86L542.876 335.24C542.623 335.907 542.203 336.407 541.616 336.74C541.043 337.073 540.369 337.24 539.596 337.24ZM552.532 337.12C551.305 337.12 550.352 336.787 549.672 336.12C549.005 335.44 548.672 334.487 548.672 333.26V328.46H546.792V326.12H546.992C547.525 326.12 547.938 325.98 548.232 325.7C548.525 325.42 548.672 325.013 548.672 324.48V323.64H551.292V326.12H553.792V328.46H551.292V333.12C551.292 333.48 551.352 333.787 551.472 334.04C551.605 334.293 551.805 334.487 552.072 334.62C552.352 334.753 552.705 334.82 553.132 334.82C553.225 334.82 553.332 334.813 553.452 334.8C553.585 334.787 553.712 334.773 553.832 334.76V337C553.645 337.027 553.432 337.053 553.192 337.08C552.952 337.107 552.732 337.12 552.532 337.12Z" fill="#00C51F"/>
<rect width="130" height="52" rx="26" fill="#E5FCFF"/>
<path d="M18.9092 34V21.42H16.0292V19.1H21.6292V34H18.9092ZM30.5956 34.24C29.409 34.24 28.369 33.92 27.4756 33.28C26.5823 32.64 25.8823 31.74 25.3756 30.58C24.8823 29.42 24.6356 28.0733 24.6356 26.54C24.6356 24.9933 24.8823 23.6467 25.3756 22.5C25.869 21.3533 26.5623 20.46 27.4556 19.82C28.349 19.18 29.389 18.86 30.5756 18.86C31.789 18.86 32.8356 19.18 33.7156 19.82C34.609 20.46 35.309 21.36 35.8156 22.52C36.3223 23.6667 36.5756 25.0067 36.5756 26.54C36.5756 28.0733 36.3223 29.42 35.8156 30.58C35.3223 31.7267 34.629 32.6267 33.7356 33.28C32.8423 33.92 31.7956 34.24 30.5956 34.24ZM30.6156 31.76C31.2956 31.76 31.8756 31.5533 32.3556 31.14C32.8356 30.7133 33.2023 30.1133 33.4556 29.34C33.7223 28.5533 33.8556 27.62 33.8556 26.54C33.8556 25.46 33.7223 24.5333 33.4556 23.76C33.2023 22.9733 32.829 22.3733 32.3356 21.96C31.8556 21.5467 31.269 21.34 30.5756 21.34C29.909 21.34 29.3356 21.5467 28.8556 21.96C28.3756 22.3733 28.0023 22.9733 27.7356 23.76C27.4823 24.5333 27.3556 25.46 27.3556 26.54C27.3556 27.6067 27.4823 28.5333 27.7356 29.32C28.0023 30.0933 28.3756 30.6933 28.8556 31.12C29.349 31.5467 29.9356 31.76 30.6156 31.76ZM44.7558 34.24C43.5691 34.24 42.5291 33.92 41.6358 33.28C40.7424 32.64 40.0424 31.74 39.5358 30.58C39.0424 29.42 38.7958 28.0733 38.7958 26.54C38.7958 24.9933 39.0424 23.6467 39.5358 22.5C40.0291 21.3533 40.7224 20.46 41.6158 19.82C42.5091 19.18 43.5491 18.86 44.7358 18.86C45.9491 18.86 46.9958 19.18 47.8758 19.82C48.7691 20.46 49.4691 21.36 49.9758 22.52C50.4824 23.6667 50.7358 25.0067 50.7358 26.54C50.7358 28.0733 50.4824 29.42 49.9758 30.58C49.4824 31.7267 48.7891 32.6267 47.8958 33.28C47.0024 33.92 45.9558 34.24 44.7558 34.24ZM44.7758 31.76C45.4558 31.76 46.0358 31.5533 46.5158 31.14C46.9958 30.7133 47.3624 30.1133 47.6158 29.34C47.8824 28.5533 48.0158 27.62 48.0158 26.54C48.0158 25.46 47.8824 24.5333 47.6158 23.76C47.3624 22.9733 46.9891 22.3733 46.4958 21.96C46.0158 21.5467 45.4291 21.34 44.7358 21.34C44.0691 21.34 43.4958 21.5467 43.0158 21.96C42.5358 22.3733 42.1624 22.9733 41.8958 23.76C41.6424 24.5333 41.5158 25.46 41.5158 26.54C41.5158 27.6067 41.6424 28.5333 41.8958 29.32C42.1624 30.0933 42.5358 30.6933 43.0158 31.12C43.5091 31.5467 44.0958 31.76 44.7758 31.76ZM63.8306 34.24C62.764 34.24 61.7773 34.0467 60.8706 33.66C59.9773 33.2733 59.1906 32.7333 58.5106 32.04C57.844 31.3467 57.324 30.5333 56.9506 29.6C56.5773 28.6667 56.3906 27.6467 56.3906 26.54C56.3906 25.4333 56.5706 24.4133 56.9306 23.48C57.304 22.5333 57.824 21.72 58.4906 21.04C59.1706 20.3467 59.964 19.8133 60.8706 19.44C61.7773 19.0533 62.764 18.86 63.8306 18.86C64.8973 18.86 65.8506 19.04 66.6906 19.4C67.544 19.76 68.264 20.24 68.8506 20.84C69.4373 21.4267 69.8573 22.0733 70.1106 22.78L67.6706 23.92C67.3906 23.1733 66.9173 22.56 66.2506 22.08C65.584 21.5867 64.7773 21.34 63.8306 21.34C62.8973 21.34 62.0706 21.56 61.3506 22C60.644 22.44 60.0906 23.0467 59.6906 23.82C59.304 24.5933 59.1106 25.5 59.1106 26.54C59.1106 27.58 59.304 28.4933 59.6906 29.28C60.0906 30.0533 60.644 30.66 61.3506 31.1C62.0706 31.54 62.8973 31.76 63.8306 31.76C64.7773 31.76 65.584 31.52 66.2506 31.04C66.9173 30.5467 67.3906 29.9267 67.6706 29.18L70.1106 30.32C69.8573 31.0267 69.4373 31.68 68.8506 32.28C68.264 32.8667 67.544 33.34 66.6906 33.7C65.8506 34.06 64.8973 34.24 63.8306 34.24ZM76.2989 34L71.0989 19.1H74.0589L78.1389 31.44H77.5589L81.6389 19.1H84.5989L79.4189 34H76.2989ZM89.1881 34.24C88.0281 34.24 87.0148 33.9667 86.1481 33.42C85.2948 32.86 84.7081 32.1067 84.3881 31.16L86.3481 30.22C86.6281 30.8333 87.0148 31.3133 87.5081 31.66C88.0148 32.0067 88.5748 32.18 89.1881 32.18C89.6681 32.18 90.0481 32.0733 90.3281 31.86C90.6081 31.6467 90.7481 31.3667 90.7481 31.02C90.7481 30.8067 90.6881 30.6333 90.5681 30.5C90.4615 30.3533 90.3081 30.2333 90.1081 30.14C89.9215 30.0333 89.7148 29.9467 89.4881 29.88L87.7081 29.38C86.7881 29.1133 86.0881 28.7067 85.6081 28.16C85.1415 27.6133 84.9081 26.9667 84.9081 26.22C84.9081 25.5533 85.0748 24.9733 85.4081 24.48C85.7548 23.9733 86.2281 23.58 86.8281 23.3C87.4415 23.02 88.1415 22.88 88.9281 22.88C89.9548 22.88 90.8615 23.1267 91.6481 23.62C92.4348 24.1133 92.9948 24.8067 93.3281 25.7L91.3281 26.64C91.1415 26.1467 90.8281 25.7533 90.3881 25.46C89.9481 25.1667 89.4548 25.02 88.9081 25.02C88.4681 25.02 88.1215 25.12 87.8681 25.32C87.6148 25.52 87.4881 25.78 87.4881 26.1C87.4881 26.3 87.5415 26.4733 87.6481 26.62C87.7548 26.7667 87.9015 26.8867 88.0881 26.98C88.2881 27.0733 88.5148 27.16 88.7681 27.24L90.5081 27.76C91.4015 28.0267 92.0881 28.4267 92.5681 28.96C93.0615 29.4933 93.3081 30.1467 93.3081 30.92C93.3081 31.5733 93.1348 32.1533 92.7881 32.66C92.4415 33.1533 91.9615 33.54 91.3481 33.82C90.7348 34.1 90.0148 34.24 89.1881 34.24ZM98.8763 34V23.12H101.496V34H98.8763ZM98.8763 21.9V19.1H101.496V21.9H98.8763ZM103.915 34V23.12H106.375V25.26L106.175 24.88C106.429 24.2267 106.842 23.7333 107.415 23.4C108.002 23.0533 108.682 22.88 109.455 22.88C110.255 22.88 110.962 23.0533 111.575 23.4C112.202 23.7467 112.689 24.2333 113.035 24.86C113.382 25.4733 113.555 26.1867 113.555 27V34H110.935V27.62C110.935 27.14 110.842 26.7267 110.655 26.38C110.469 26.0333 110.209 25.7667 109.875 25.58C109.555 25.38 109.175 25.28 108.735 25.28C108.309 25.28 107.929 25.38 107.595 25.58C107.262 25.7667 107.002 26.0333 106.815 26.38C106.629 26.7267 106.535 27.14 106.535 27.62V34H103.915Z" fill="#2596FF"/>
</svg>
