<svg width="61" height="61" viewBox="0 0 61 61" fill="none" xmlns="http://www.w3.org/2000/svg">
<g clip-path="url(#clip0_199_11)">
<path d="M48.2582 48.0084C48.1536 47.9026 48.1472 47.7254 48.2433 47.6122L48.7558 47.01C48.9117 46.8274 48.7857 46.5295 48.5561 46.538L46.4611 46.616C46.3928 46.6181 46.3287 46.6501 46.2828 46.7046L45.4233 47.7136C45.3282 47.8247 45.3325 47.9987 45.4329 48.1055L46.4206 49.1573C46.4708 49.2117 46.5402 49.2406 46.6106 49.2374L48.7515 49.1583C48.9811 49.1498 49.0847 48.8434 48.916 48.6736L48.2582 48.0084Z" fill="#062276"/>
<path d="M22.3582 32.2907C22.0656 32.673 21.9888 33.1983 22.1414 33.7717C22.5152 35.1694 24.0837 36.3493 25.5658 36.3493C26.2139 36.3493 26.7372 36.124 27.0404 35.714C27.3383 35.3104 27.3992 34.7583 27.2145 34.1572C26.7916 32.7861 25.2679 31.6714 23.8168 31.6714C23.1825 31.6714 22.6647 31.8914 22.3582 32.2907Z" fill="#062276"/>
<path d="M35.6221 13.3132C35.651 13.4562 35.7898 13.5609 35.935 13.5481L37.3722 13.4253C37.4459 13.4189 37.511 13.3826 37.5527 13.326L38.8169 11.5962C38.9525 11.4115 38.7764 11.1402 38.5372 11.1669L37.6082 11.2705C37.4608 11.2865 37.3167 11.1819 37.2879 11.0367L37.133 10.2615C37.0861 10.0265 36.7743 9.94112 36.6387 10.1258L35.4022 11.8183C35.3616 11.8738 35.3467 11.9432 35.3616 12.0137L35.6211 13.3142L35.6221 13.3132Z" fill="#062276"/>
<path d="M22.5408 10.6212C22.5643 10.7717 22.7031 10.8753 22.8536 10.8561L24.3411 10.6639C24.4169 10.6543 24.4863 10.6137 24.5322 10.5507L25.9096 8.665C26.057 8.46319 25.8872 8.18344 25.6405 8.22188L24.6774 8.37137C24.5247 8.39486 24.3806 8.29021 24.3571 8.13752L24.23 7.32281C24.1916 7.07615 23.8734 6.9982 23.726 7.20001L22.3785 9.04406C22.3347 9.10386 22.3165 9.17967 22.3283 9.25228L22.5408 10.618V10.6212Z" fill="#062276"/>
<path d="M50.429 34.2521L49.5961 33.8272C49.4637 33.7599 49.4018 33.5933 49.4573 33.4556L49.7552 32.7231C49.846 32.501 49.6325 32.2575 49.4178 32.3376L47.4531 33.0701C47.3891 33.0936 47.3378 33.1449 47.3111 33.2111L46.8125 34.4401C46.758 34.5757 46.8167 34.739 46.9449 34.8085L48.2123 35.4972C48.2774 35.5324 48.3511 35.5388 48.4173 35.5143L50.4247 34.7657C50.6394 34.6857 50.6415 34.3621 50.4279 34.2532L50.429 34.2521Z" fill="#062276"/>
<path d="M30.5 0C13.6547 0 0 13.6547 0 30.5C0 47.3453 13.6547 61 30.5 61C47.3453 61 61 47.3453 61 30.5C61 13.6547 47.3442 0 30.5 0ZM34.3557 14.1715C34.3963 14.116 34.4113 14.0466 34.3963 13.9761L33.9254 11.6174C33.9115 11.5469 33.9254 11.4775 33.966 11.422L37.337 6.80922C37.4726 6.62449 37.7844 6.70991 37.8314 6.94483L38.3567 9.57476C38.3855 9.72105 38.5297 9.82569 38.677 9.8086L41.4864 9.49468C41.7245 9.46798 41.9007 9.7392 41.7661 9.92393L38.3556 14.5912C38.314 14.6478 38.2489 14.6841 38.1752 14.6905L35.6542 14.9062C35.5805 14.9126 35.5154 14.9478 35.4737 15.0055L26.3741 27.459C26.1659 27.7441 25.7452 27.791 25.4345 27.5647C25.1237 27.3372 25.0405 26.9219 25.2487 26.6368L25.9694 25.6512C24.6315 25.1889 23.2466 24.9347 21.8766 24.9347C19.251 24.9347 17.0396 25.884 15.6526 27.6063C14.3392 29.2379 13.8993 31.4386 14.4161 33.8037C15.6632 39.5184 21.8254 44.3459 27.8711 44.3459C30.7071 44.3459 33.0071 43.2973 34.3483 41.3924C34.5127 41.1586 34.6601 40.914 34.7914 40.6599L36.4368 40.3652C36.2019 41.0165 35.8859 41.6305 35.4876 42.1954C33.8774 44.4815 31.1727 45.7404 27.8701 45.7404C24.5674 45.7404 21.253 44.5082 18.4288 42.2712C15.628 40.0523 13.7188 37.1512 13.0525 34.1016C12.4449 31.3158 12.982 28.6997 14.5656 26.7329C16.2227 24.6742 18.8185 23.5413 21.8756 23.5413C23.5327 23.5413 25.2102 23.8819 26.8162 24.4905L28.5759 22.0827C25.9769 20.9359 23.2231 20.2835 20.5355 20.2835C19.6898 20.2835 18.8708 20.3486 18.0839 20.4736L19.2008 18.9413C19.6386 18.9082 20.0838 18.8901 20.5366 18.8901C23.4516 18.8901 26.5044 19.6001 29.4226 20.9263L34.3568 14.1737L34.3557 14.1715ZM28.546 33.746C28.861 34.7658 28.7211 35.7844 28.1616 36.5415C27.5978 37.3049 26.6517 37.7427 25.5658 37.7427C23.4687 37.7427 21.3289 36.1229 20.796 34.1315C20.528 33.1299 20.6903 32.1753 21.253 31.4418C21.8296 30.6911 22.7394 30.2779 23.8168 30.2779C25.868 30.2779 27.9459 31.8016 28.546 33.746ZM29.7429 52.241C24.6721 52.241 19.5051 50.2934 15.1934 46.7558C11.0034 43.3187 8.11938 38.6963 7.28118 34.076C6.55082 30.0515 7.436 26.2919 9.7755 23.4911C11.1935 21.7923 13.0546 20.5323 15.2212 19.7635L21.1975 11.5843C21.2413 11.5245 21.2595 11.4487 21.2477 11.3761L20.8622 8.89993C20.8505 8.82625 20.8686 8.75151 20.9124 8.69171L24.5856 3.66461C24.7329 3.4628 25.0511 3.53968 25.0896 3.78741L25.5188 6.54868C25.5423 6.70137 25.6865 6.80601 25.8392 6.78252L28.7499 6.32979C28.9966 6.29135 29.1674 6.5711 29.019 6.77291L25.3031 11.8587C25.2572 11.9207 25.1889 11.9612 25.112 11.9719L22.5023 12.3083C22.4265 12.3179 22.3571 12.3585 22.3112 12.4215L12.3948 25.9918C12.1673 26.3026 11.7317 26.3709 11.4209 26.1435C11.1102 25.916 11.0419 25.4804 11.2693 25.1697L13.5085 22.1051C12.493 22.7202 11.595 23.4836 10.8422 24.387C8.77286 26.8653 7.99445 30.2192 8.65007 33.8293C10.3243 43.0549 19.9824 50.8497 29.7408 50.8497C31.5966 50.8497 33.304 50.5657 34.8192 50.02L37.4363 50.3382C35.2986 51.5843 32.6836 52.2432 29.7408 52.2432L29.7429 52.241ZM51.8887 50.4375L46.113 50.6522C46.0426 50.6543 45.9742 50.6255 45.923 50.5721L44.191 48.727C44.1409 48.6725 44.0715 48.6437 44.001 48.6469L28.5876 49.2192C28.2342 49.232 27.9373 48.9309 27.9224 48.5465C27.9085 48.1621 28.1829 47.8396 28.5353 47.8268L38.9162 47.4414C39.3327 47.0174 39.7117 46.5572 40.0491 46.0607C41.5643 43.8333 42.1366 41.0368 41.7458 38.0567L43.0966 37.6424C43.5952 41.0464 42.9546 44.269 41.2023 46.8445C41.0795 47.0249 40.9514 47.199 40.819 47.3709L43.9625 47.2545C44.0309 47.2524 44.0949 47.2203 44.1409 47.1659L45.6998 45.3346C45.7457 45.2802 45.8109 45.2481 45.8781 45.246L51.5875 45.0335C51.8171 45.025 51.9431 45.3229 51.7872 45.5055L50.0478 47.5481C49.9517 47.6613 49.9581 47.8386 50.0628 47.9443L52.0499 49.9549C52.2186 50.1258 52.115 50.4322 51.8854 50.4397L51.8887 50.4375ZM53.8053 34.9921L48.3895 37.0102C48.3233 37.0348 48.2486 37.0284 48.1845 36.9932L45.9603 35.7855C45.8952 35.7503 45.8215 35.7439 45.7553 35.7684L31.303 41.1543C30.972 41.2781 30.595 41.0849 30.4605 40.725C30.3259 40.3641 30.4851 39.9723 30.8161 39.8484L35.5111 38.0983C35.6211 36.8629 35.4406 35.5303 34.9601 34.186C33.8315 31.0318 31.2645 28.2961 28.1947 26.6336L28.9923 25.4975C32.2971 27.334 35.0509 30.3035 36.2724 33.7161C36.7401 35.022 36.959 36.3247 36.9376 37.5676L41.3155 35.9361C41.1564 35.3627 40.9642 34.785 40.7357 34.2073C38.9568 29.7002 35.2484 25.7569 30.846 23.2284L31.8721 22.2012C32.3451 22.481 32.8117 22.7768 33.2709 23.0896C37.3049 25.837 40.4165 29.6031 42.032 33.6959C42.2626 34.281 42.457 34.8661 42.6225 35.4491L45.2823 34.4582C45.3464 34.4348 45.3976 34.3835 45.4243 34.3173L46.3298 32.0889C46.3565 32.0226 46.4077 31.9725 46.4718 31.9479L51.8257 29.9522C52.0403 29.8721 52.2538 30.1156 52.1631 30.3377L51.154 32.8224C51.0985 32.9602 51.1604 33.1267 51.2928 33.194L53.8107 34.4785C54.0242 34.5875 54.0221 34.911 53.8074 34.9911L53.8053 34.9921Z" fill="#062276"/>
</g>
<defs>
<clipPath id="clip0_199_11">
<rect width="61" height="61" fill="white"/>
</clipPath>
</defs>
</svg>
