<svg width="66" height="51" viewBox="0 0 66 51" fill="none" xmlns="http://www.w3.org/2000/svg">
<g clip-path="url(#clip0_197_2)">
<path d="M60.5776 48.8466C62.0728 48.8466 63.2978 48.8604 64.5228 48.8411C65.2766 48.83 65.9847 48.9667 66 49.852C66.0166 50.8173 65.2641 50.9817 64.4646 50.9651C64.283 50.9609 64.1001 50.9651 63.9172 50.9651C43.3681 50.9651 22.8176 50.9679 2.26842 50.9513C1.38294 50.9513 0.0249118 51.3311 -3.14832e-05 49.9362C-0.0277463 48.3839 1.40649 48.8949 2.31 48.859C3.84401 48.7983 5.3808 48.8425 7.03537 48.8425V40.0494H16.3559C16.3559 42.6168 16.3822 45.1454 16.342 47.6741C16.3268 48.6035 16.5512 49.0814 17.7624 48.6823V34.0475H27.0344V48.7264C27.5443 48.772 27.9254 48.8065 28.4589 48.8535V27.4835H37.7226V48.7209C38.2492 48.772 38.6261 48.8093 39.1166 48.8563V19.1835C36.6542 19.1241 35.3377 18.7043 33.6499 17.5953L33.6859 17.1782C33.9367 17.0332 34.2028 16.9103 34.4356 16.7418C35.547 15.9339 35.9946 14.836 35.6246 13.5213C35.2546 12.2038 34.279 11.476 32.9265 11.3793C31.8456 11.302 30.7537 11.3641 29.7102 11.3641C28.3661 7.14782 31.1902 2.0974 35.655 0.535456C40.5453 -1.17702 45.9262 1.33369 47.7096 6.16038C49.5803 11.2246 47.0638 16.2902 41.5749 18.6697H48.469V48.7292C48.9678 48.772 49.3434 48.8052 49.8991 48.8521V8.04273H60.5776V48.8466Z" fill="#062276"/>
<path d="M20.8692 12.7055C20.132 10.8508 20.0724 9.21983 21.7866 7.98519C22.9728 7.13034 24.5345 7.05024 25.6181 7.86919C27.3295 9.16183 27.2367 10.8577 26.4537 12.7774C28.4284 12.7774 30.2895 12.7898 32.1491 12.7732C33.248 12.7636 34.2042 12.9638 34.3206 14.2799C34.4107 15.2964 33.5945 15.8529 32.0895 15.8571C29.2654 15.8653 26.4413 15.817 23.6199 15.8985C23.1155 15.9123 22.4323 16.3156 22.1621 16.7451C21.0743 18.4713 20.1168 20.2777 19.0331 22.1918C20.29 23.2 21.533 24.244 22.8286 25.2204C23.6878 25.8695 24.0398 26.5973 23.7502 27.6842C23.4592 28.7766 23.3386 29.9132 23.0906 31.018C22.8702 32.0013 22.2314 32.5302 21.2004 32.3258C20.2304 32.1325 19.7107 31.3425 20.0239 30.5042C20.9149 28.1109 19.7315 26.9205 17.7485 26.0559C17.3841 25.8971 17.0501 25.6693 16.5997 25.4165C14.8385 28.7572 13.1077 32.0399 11.3783 35.324C10.8074 36.4081 10.2503 37.4992 9.66551 38.575C9.19574 39.4395 8.50287 39.8897 7.53008 39.3994C6.56561 38.9133 6.49355 38.0902 6.90511 37.1953C10.4485 29.4906 13.9752 21.7775 17.5933 14.1073C17.8746 13.5093 18.7823 13.153 19.4641 12.816C19.8313 12.6351 20.3371 12.7373 20.8692 12.7069V12.7055Z" fill="#062276"/>
</g>
<defs>
<clipPath id="clip0_197_2">
<rect width="66" height="51" fill="white"/>
</clipPath>
</defs>
</svg>
