<svg width="68" height="52" viewBox="0 0 68 52" fill="none" xmlns="http://www.w3.org/2000/svg">
<path d="M67.0113 0V5.12676C61.7933 10.0636 59.1843 16.3297 59.1843 23.9249C59.1843 24.8472 59.2393 25.7694 59.3491 26.6917C65.1164 28.8618 68 32.9035 68 38.8169C68 42.6145 66.6818 45.7611 64.0453 48.2567C61.4089 50.7522 58.1133 52 54.1586 52C49.2153 52 45.1507 50.2368 41.965 46.7105C38.8342 43.1299 37.2688 38.5456 37.2688 32.9577C37.2688 24.9285 40.0426 17.686 45.5901 11.23C51.1926 4.77413 58.333 1.03078 67.0113 0ZM29.6601 0V5.12676C24.4971 10.0636 21.9155 16.3297 21.9155 23.9249C21.9155 24.8472 21.9705 25.7694 22.0803 26.6917C27.7926 28.8618 30.6488 32.9035 30.6488 38.8169C30.6488 42.6145 29.3306 45.7611 26.6941 48.2567C24.1126 50.7522 20.8445 52 16.8898 52C11.9464 52 7.8819 50.2368 4.69619 46.7105C1.5654 43.1299 0 38.5456 0 32.9577C0 24.9285 2.77377 17.686 8.32131 11.23C13.9238 4.77413 21.0367 1.03078 29.6601 0Z" fill="#C1F0FF"/>
</svg>
